<svg width="50" height="45" viewBox="0 0 50 45" fill="none" xmlns="http://www.w3.org/2000/svg">
<g clip-path="url(#clip0_15:29)">
<path d="M43.2 26.1958V42.8607C43.2 43.4921 42.9471 44.0976 42.4971 44.5441C42.047 44.9906 41.4365 45.2414 40.8 45.2414H7.2C6.56348 45.2414 5.95303 44.9906 5.50294 44.5441C5.05286 44.0976 4.8 43.4921 4.8 42.8607V26.1958H43.2ZM30 0.00814635C31.4176 0.00766546 32.8122 0.363049 34.054 1.0412C35.2958 1.71935 36.3444 2.69821 37.1021 3.88662C37.8598 5.07502 38.3021 6.43432 38.3876 7.83791C38.4731 9.2415 38.1991 10.6437 37.5912 11.914L45.6 11.9116C46.2365 11.9116 46.847 12.1625 47.2971 12.6089C47.7471 13.0554 48 13.6609 48 14.2923V21.4344C48 22.0658 47.7471 22.6714 47.2971 23.1178C46.847 23.5643 46.2365 23.8151 45.6 23.8151H2.4C1.76348 23.8151 1.15303 23.5643 0.702944 23.1178C0.252856 22.6714 0 22.0658 0 21.4344V14.2923C0 13.6609 0.252856 13.0554 0.702944 12.6089C1.15303 12.1625 1.76348 11.9116 2.4 11.9116L10.4088 11.914C9.55381 10.1325 9.3639 8.10776 9.87288 6.20034C10.3819 4.29291 11.5567 2.62654 13.1882 1.49787C14.8198 0.369206 16.8022 -0.148515 18.7825 0.0368755C20.7628 0.222266 22.6125 1.09874 24.0024 2.51026C24.7825 1.71636 25.7153 1.08584 26.7455 0.656045C27.7757 0.226254 28.8824 0.00593735 30 0.00814635ZM18 4.76954C17.0755 4.76999 16.1866 5.12325 15.5175 5.75612C14.8484 6.38899 14.4504 7.25295 14.4059 8.16897C14.3615 9.085 14.6741 9.98286 15.2788 10.6765C15.8836 11.3702 16.7342 11.8065 17.6544 11.895L18 11.9116H21.6V8.34058C21.6 7.45286 21.2666 6.59698 20.6649 5.93984C20.0632 5.28271 19.2364 4.87142 18.3456 4.7862L18 4.76954ZM30 4.76954L29.6544 4.7862C28.8225 4.86526 28.0442 5.22896 27.4531 5.81493C26.8619 6.40089 26.4947 7.17262 26.4144 7.99776L26.4 8.34058V11.9116H30L30.3456 11.895C31.2361 11.8093 32.0625 11.3979 32.6638 10.7408C33.2651 10.0837 33.5982 9.22803 33.5982 8.34058C33.5982 7.45314 33.2651 6.59749 32.6638 5.9404C32.0625 5.2833 31.2361 4.87184 30.3456 4.7862L30 4.76954Z" fill="#F63A52"/>
<mask id="mask0_15:29" style="mask-type:alpha" maskUnits="userSpaceOnUse" x="0" y="0" width="48" height="46">
<path d="M43.2 26.1958V42.8607C43.2 43.4921 42.9471 44.0976 42.4971 44.5441C42.047 44.9906 41.4365 45.2414 40.8 45.2414H7.2C6.56348 45.2414 5.95303 44.9906 5.50294 44.5441C5.05286 44.0976 4.8 43.4921 4.8 42.8607V26.1958H43.2ZM30 0.00814635C31.4176 0.00766546 32.8122 0.363049 34.054 1.0412C35.2958 1.71935 36.3444 2.69821 37.1021 3.88662C37.8598 5.07502 38.3021 6.43432 38.3876 7.83791C38.4731 9.2415 38.1991 10.6437 37.5912 11.914L45.6 11.9116C46.2365 11.9116 46.847 12.1625 47.2971 12.6089C47.7471 13.0554 48 13.6609 48 14.2923V21.4344C48 22.0658 47.7471 22.6714 47.2971 23.1178C46.847 23.5643 46.2365 23.8151 45.6 23.8151H2.4C1.76348 23.8151 1.15303 23.5643 0.702944 23.1178C0.252856 22.6714 0 22.0658 0 21.4344V14.2923C0 13.6609 0.252856 13.0554 0.702944 12.6089C1.15303 12.1625 1.76348 11.9116 2.4 11.9116L10.4088 11.914C9.55381 10.1325 9.3639 8.10776 9.87288 6.20034C10.3819 4.29291 11.5567 2.62654 13.1882 1.49787C14.8198 0.369206 16.8022 -0.148515 18.7825 0.0368755C20.7628 0.222266 22.6125 1.09874 24.0024 2.51026C24.7825 1.71636 25.7153 1.08584 26.7455 0.656045C27.7757 0.226254 28.8824 0.00593735 30 0.00814635ZM18 4.76954C17.0755 4.76999 16.1866 5.12325 15.5175 5.75612C14.8484 6.38899 14.4504 7.25295 14.4059 8.16897C14.3615 9.085 14.6741 9.98286 15.2788 10.6765C15.8836 11.3702 16.7342 11.8065 17.6544 11.895L18 11.9116H21.6V8.34058C21.6 7.45286 21.2666 6.59698 20.6649 5.93984C20.0632 5.28271 19.2364 4.87142 18.3456 4.7862L18 4.76954ZM30 4.76954L29.6544 4.7862C28.8225 4.86526 28.0442 5.22896 27.4531 5.81493C26.8619 6.40089 26.4947 7.17262 26.4144 7.99776L26.4 8.34058V11.9116H30L30.3456 11.895C31.2361 11.8093 32.0625 11.3979 32.6638 10.7408C33.2651 10.0837 33.5982 9.22803 33.5982 8.34058C33.5982 7.45314 33.2651 6.59749 32.6638 5.9404C32.0625 5.2833 31.2361 4.87184 30.3456 4.7862L30 4.76954Z" fill="#F63A52"/>
</mask>
<g mask="url(#mask0_15:29)">
<rect x="21.5172" y="25.9311" width="4.41379" height="19.3103" fill="white"/>
</g>
</g>
<defs>
<clipPath id="clip0_15:29">
<rect width="50" height="45" fill="white"/>
</clipPath>
</defs>
</svg>
