<svg width="147" height="45" viewBox="0 0 147 45" fill="none" xmlns="http://www.w3.org/2000/svg">
<g clip-path="url(#clip0_15:12)">
<path d="M43.2 26.1958V42.8607C43.2 43.4921 42.9471 44.0976 42.4971 44.5441C42.047 44.9906 41.4365 45.2414 40.8 45.2414H7.2C6.56348 45.2414 5.95303 44.9906 5.50294 44.5441C5.05286 44.0976 4.8 43.4921 4.8 42.8607V26.1958H43.2ZM30 0.00814635C31.4176 0.00766546 32.8122 0.363049 34.054 1.0412C35.2958 1.71935 36.3444 2.69821 37.1021 3.88662C37.8598 5.07502 38.3021 6.43432 38.3876 7.83791C38.4731 9.2415 38.1991 10.6437 37.5912 11.914L45.6 11.9116C46.2365 11.9116 46.847 12.1625 47.2971 12.6089C47.7471 13.0554 48 13.6609 48 14.2923V21.4344C48 22.0658 47.7471 22.6714 47.2971 23.1178C46.847 23.5643 46.2365 23.8151 45.6 23.8151H2.4C1.76348 23.8151 1.15303 23.5643 0.702944 23.1178C0.252856 22.6714 0 22.0658 0 21.4344V14.2923C0 13.6609 0.252856 13.0554 0.702944 12.6089C1.15303 12.1625 1.76348 11.9116 2.4 11.9116L10.4088 11.914C9.55381 10.1325 9.3639 8.10776 9.87288 6.20034C10.3819 4.29291 11.5567 2.62654 13.1882 1.49787C14.8198 0.369206 16.8022 -0.148515 18.7825 0.0368755C20.7628 0.222266 22.6125 1.09874 24.0024 2.51026C24.7825 1.71636 25.7153 1.08584 26.7455 0.656045C27.7757 0.226254 28.8824 0.00593735 30 0.00814635ZM18 4.76954C17.0755 4.76999 16.1866 5.12325 15.5175 5.75612C14.8484 6.38899 14.4504 7.25295 14.4059 8.16897C14.3615 9.085 14.6741 9.98286 15.2788 10.6765C15.8836 11.3702 16.7342 11.8065 17.6544 11.895L18 11.9116H21.6V8.34058C21.6 7.45286 21.2666 6.59698 20.6649 5.93984C20.0632 5.28271 19.2364 4.87142 18.3456 4.7862L18 4.76954ZM30 4.76954L29.6544 4.7862C28.8225 4.86526 28.0442 5.22896 27.4531 5.81493C26.8619 6.40089 26.4947 7.17262 26.4144 7.99776L26.4 8.34058V11.9116H30L30.3456 11.895C31.2361 11.8093 32.0625 11.3979 32.6638 10.7408C33.2651 10.0837 33.5982 9.22803 33.5982 8.34058C33.5982 7.45314 33.2651 6.59749 32.6638 5.9404C32.0625 5.2833 31.2361 4.87184 30.3456 4.7862L30 4.76954Z" fill="#F63A52"/>
<mask id="mask0_15:12" style="mask-type:alpha" maskUnits="userSpaceOnUse" x="0" y="0" width="48" height="46">
<path d="M43.2 26.1958V42.8607C43.2 43.4921 42.9471 44.0976 42.4971 44.5441C42.047 44.9906 41.4365 45.2414 40.8 45.2414H7.2C6.56348 45.2414 5.95303 44.9906 5.50294 44.5441C5.05286 44.0976 4.8 43.4921 4.8 42.8607V26.1958H43.2ZM30 0.00814635C31.4176 0.00766546 32.8122 0.363049 34.054 1.0412C35.2958 1.71935 36.3444 2.69821 37.1021 3.88662C37.8598 5.07502 38.3021 6.43432 38.3876 7.83791C38.4731 9.2415 38.1991 10.6437 37.5912 11.914L45.6 11.9116C46.2365 11.9116 46.847 12.1625 47.2971 12.6089C47.7471 13.0554 48 13.6609 48 14.2923V21.4344C48 22.0658 47.7471 22.6714 47.2971 23.1178C46.847 23.5643 46.2365 23.8151 45.6 23.8151H2.4C1.76348 23.8151 1.15303 23.5643 0.702944 23.1178C0.252856 22.6714 0 22.0658 0 21.4344V14.2923C0 13.6609 0.252856 13.0554 0.702944 12.6089C1.15303 12.1625 1.76348 11.9116 2.4 11.9116L10.4088 11.914C9.55381 10.1325 9.3639 8.10776 9.87288 6.20034C10.3819 4.29291 11.5567 2.62654 13.1882 1.49787C14.8198 0.369206 16.8022 -0.148515 18.7825 0.0368755C20.7628 0.222266 22.6125 1.09874 24.0024 2.51026C24.7825 1.71636 25.7153 1.08584 26.7455 0.656045C27.7757 0.226254 28.8824 0.00593735 30 0.00814635ZM18 4.76954C17.0755 4.76999 16.1866 5.12325 15.5175 5.75612C14.8484 6.38899 14.4504 7.25295 14.4059 8.16897C14.3615 9.085 14.6741 9.98286 15.2788 10.6765C15.8836 11.3702 16.7342 11.8065 17.6544 11.895L18 11.9116H21.6V8.34058C21.6 7.45286 21.2666 6.59698 20.6649 5.93984C20.0632 5.28271 19.2364 4.87142 18.3456 4.7862L18 4.76954ZM30 4.76954L29.6544 4.7862C28.8225 4.86526 28.0442 5.22896 27.4531 5.81493C26.8619 6.40089 26.4947 7.17262 26.4144 7.99776L26.4 8.34058V11.9116H30L30.3456 11.895C31.2361 11.8093 32.0625 11.3979 32.6638 10.7408C33.2651 10.0837 33.5982 9.22803 33.5982 8.34058C33.5982 7.45314 33.2651 6.59749 32.6638 5.9404C32.0625 5.2833 31.2361 4.87184 30.3456 4.7862L30 4.76954Z" fill="#F63A52"/>
</mask>
<g mask="url(#mask0_15:12)">
<rect x="21.5172" y="25.9311" width="4.41379" height="19.3103" fill="white"/>
</g>
<path d="M81.852 23.4H84.408V33.012C83.232 34.044 81.84 34.836 80.232 35.388C78.624 35.94 76.932 36.216 75.156 36.216C72.636 36.216 70.368 35.664 68.352 34.56C66.336 33.456 64.752 31.932 63.6 29.988C62.448 28.02 61.872 25.824 61.872 23.4C61.872 20.976 62.448 18.792 63.6 16.848C64.752 14.88 66.336 13.344 68.352 12.24C70.368 11.136 72.648 10.584 75.192 10.584C77.112 10.584 78.876 10.896 80.484 11.52C82.092 12.12 83.448 13.02 84.552 14.22L82.896 15.912C80.904 13.944 78.372 12.96 75.3 12.96C73.26 12.96 71.412 13.416 69.756 14.328C68.124 15.216 66.84 16.464 65.904 18.072C64.968 19.656 64.5 21.432 64.5 23.4C64.5 25.368 64.968 27.144 65.904 28.728C66.84 30.312 68.124 31.56 69.756 32.472C71.388 33.384 73.224 33.84 75.264 33.84C77.856 33.84 80.052 33.192 81.852 31.896V23.4ZM91.4078 17.064H93.9638V36H91.4078V17.064ZM92.7038 12.924C92.1758 12.924 91.7318 12.744 91.3718 12.384C91.0118 12.024 90.8318 11.592 90.8318 11.088C90.8318 10.608 91.0118 10.188 91.3718 9.828C91.7318 9.468 92.1758 9.288 92.7038 9.288C93.2318 9.288 93.6758 9.468 94.0358 9.828C94.3958 10.164 94.5758 10.572 94.5758 11.052C94.5758 11.58 94.3958 12.024 94.0358 12.384C93.6758 12.744 93.2318 12.924 92.7038 12.924ZM107.34 11.268C106.236 11.268 105.396 11.568 104.82 12.168C104.268 12.768 103.992 13.656 103.992 14.832V17.064H109.824V19.224H104.064V36H101.508V19.224H98.1237V17.064H101.508V14.724C101.508 12.996 102 11.628 102.984 10.62C103.992 9.612 105.408 9.108 107.232 9.108C107.952 9.108 108.648 9.216 109.32 9.432C109.992 9.624 110.556 9.912 111.012 10.296L110.148 12.204C109.404 11.58 108.468 11.268 107.34 11.268ZM124.795 35.064C124.243 35.472 123.559 35.784 122.743 36C121.951 36.192 121.111 36.288 120.223 36.288C117.919 36.288 116.131 35.7 114.859 34.524C113.611 33.348 112.987 31.62 112.987 29.34V21.384H109.999V17.064H112.987V12.348H118.603V17.064H123.427V21.384H118.603V29.268C118.603 30.084 118.807 30.72 119.215 31.176C119.647 31.608 120.247 31.824 121.015 31.824C121.903 31.824 122.659 31.584 123.283 31.104L124.795 35.064ZM146.82 16.632L138.072 37.188C137.184 39.42 136.08 40.992 134.76 41.904C133.464 42.816 131.892 43.272 130.044 43.272C129.036 43.272 128.04 43.116 127.056 42.804C126.072 42.492 125.268 42.06 124.644 41.508L126.696 37.512C127.128 37.896 127.62 38.196 128.172 38.412C128.748 38.628 129.312 38.736 129.864 38.736C130.632 38.736 131.256 38.544 131.736 38.16C132.216 37.8 132.648 37.188 133.032 36.324L133.104 36.144L124.716 16.632H130.512L135.948 29.772L141.42 16.632H146.82Z" fill="#150E4B"/>
</g>
<defs>
<clipPath id="clip0_15:12">
<rect width="147" height="45" fill="white"/>
</clipPath>
</defs>
</svg>
